<?xml version="1.0" encoding="utf-8"?>
<!-- Generator: Adobe Illustrator 23.0.6, SVG Export Plug-In . SVG Version: 6.00 Build 0)  -->
<svg version="1.1" id="Layer_1" xmlns="http://www.w3.org/2000/svg" xmlns:xlink="http://www.w3.org/1999/xlink" x="0px" y="0px"
	 viewBox="0 0 512 512" style="enable-background:new 0 0 512 512;" xml:space="preserve">
<style type="text/css">
	.st0{fill:url(#SVGID_1_);stroke:#0946CE;stroke-miterlimit:10;}
	.st1{fill:#FFE873;stroke:#806200;stroke-miterlimit:10;}
	.st2{fill:none;stroke:#806200;stroke-miterlimit:10;}
</style>
<g>
	<linearGradient id="SVGID_1_" gradientUnits="userSpaceOnUse" x1="112.1646" y1="387.5029" x2="489.1213" y2="41.9066">
		<stop  offset="1.086869e-06" style="stop-color:#88DCEA"/>
		<stop  offset="0.3" style="stop-color:#66ADE3"/>
		<stop  offset="0.6575" style="stop-color:#3C74A3"/>
		<stop  offset="0.9385" style="stop-color:#306998"/>
	</linearGradient>
	<rect x="-0.19" y="0.37" class="st0" width="511.4" height="511.42"/>
	<g>
		<path class="st1" d="M340.18,116.46H207.07c-13.78-12.16-32.83-19.69-53.82-19.69c-42.14,0-76.3,30.27-76.3,67.62
			c0,10.91,2.93,21.25,8.13,30.39l24.48,0.11v148.24c0,31.39,23.66,56.83,52.84,56.83h177.78c29.19,0,52.85-25.43,52.85-56.83
			V173.27C393.04,141.9,369.37,116.46,340.18,116.46z M150.78,144.23c-8.31,0-15.03-6.74-15.03-15.05c0-8.31,6.72-15.05,15.03-15.05
			s15.05,6.74,15.05,15.05C165.82,137.49,159.08,144.23,150.78,144.23z M251.05,343.23c-40.94,0-74.13-33.19-74.13-74.13
			c0-40.94,33.19-74.13,74.13-74.13s74.13,33.19,74.13,74.13C325.18,310.04,291.98,343.23,251.05,343.23z"/>
	</g>
	<line class="st2" x1="239.98" y1="195.64" x2="109.79" y2="195.06"/>
</g>
</svg>
