<?xml version="1.0" encoding="utf-8"?>
<!-- Generator: Adobe Illustrator 23.0.6, SVG Export Plug-In . SVG Version: 6.00 Build 0)  -->
<svg version="1.1" id="Layer_1" xmlns="http://www.w3.org/2000/svg" xmlns:xlink="http://www.w3.org/1999/xlink" x="0px" y="0px"
	 viewBox="0 0 512 512" style="enable-background:new 0 0 512 512;" xml:space="preserve">
<style type="text/css">
	.st0{fill:url(#SVGID_1_);}
	.st1{fill:#FFE873;stroke:#806200;stroke-miterlimit:10;}
	.st2{fill:#FFE873;stroke:#FFFFFF;stroke-miterlimit:10;}
	.st3{fill:#FFE873;}
	.st4{fill:#FEE774;}
	.st5{fill:#FDE675;}
	.st6{fill:#FFFFFF;stroke:#FFFFFF;stroke-miterlimit:10;}
	.st7{fill:#FFFFFF;}
	.st8{fill:#FDFEFF;}
</style>
<radialGradient id="SVGID_1_" cx="75.1277" cy="466.5319" r="487.5684" gradientUnits="userSpaceOnUse">
	<stop  offset="0" style="stop-color:#F9ED32"/>
	<stop  offset="0.7291" style="stop-color:#EF3B75"/>
	<stop  offset="1" style="stop-color:#6E11BF"/>
</radialGradient>
<path class="st0" d="M512,87.13v337.74c0,48.12-39.01,87.13-87.13,87.13H87.13C39.01,512,0,472.99,0,424.87V87.13
	C0,39.01,39.01,0,87.13,0h337.74C472.99,0,512,39.01,512,87.13z"/>
<path class="st1" d="M228.95,194.11c-4.13-0.35-8.35-0.53-12.63-0.53c-3.83,0-7.61,0.15-11.34,0.42c-2.85,0.21-5.66,0.51-8.43,0.88
	h34.58v0.27c0.72,0,1.35,0.14,1.9,0.36c0.59-0.24,1.21-0.37,1.84-0.36c1.55,0.02,3,0.29,4.43,0.74c0.43-0.12,0.87-0.23,1.31-0.33
	C236.8,194.93,232.91,194.44,228.95,194.11z M109.56,269.64c0-0.18,0-0.36,0.01-0.54h-0.01V269.64z"/>
<path class="st2" d="M240.61,195.56c-0.44,0.1-0.88,0.21-1.31,0.33c-1.43-0.45-2.88-0.72-4.43-0.74c-0.63-0.01-1.25,0.12-1.84,0.36
	c-0.55-0.22-1.18-0.36-1.9-0.36v-0.27h-34.58c2.77-0.37,5.58-0.67,8.43-0.88c3.73-0.27,7.51-0.42,11.34-0.42
	c4.28,0,8.5,0.18,12.63,0.53C232.91,194.44,236.8,194.93,240.61,195.56z"/>
<rect x="196.55" y="158.96" class="st3" width="65.56" height="35.15"/>
<g>
	<g>
		<path class="st4" d="M219.77,194.18c0.62-0.04,1.25-0.08,1.87-0.13c0.21,0.01,0.4-0.04,0.58-0.13c0.19-0.06,0.35-0.16,0.48-0.31
			c0.15-0.14,0.25-0.3,0.31-0.48c0.09-0.18,0.14-0.37,0.13-0.58c-0.02-0.39-0.14-0.79-0.44-1.06c-0.28-0.26-0.67-0.47-1.06-0.44
			c-0.62,0.04-1.25,0.08-1.87,0.13c-0.21-0.01-0.4,0.04-0.58,0.13c-0.19,0.06-0.35,0.16-0.48,0.31c-0.15,0.14-0.25,0.3-0.31,0.48
			c-0.09,0.18-0.14,0.37-0.13,0.58c0.02,0.39,0.14,0.79,0.44,1.06C218.99,194,219.37,194.21,219.77,194.18L219.77,194.18z"/>
	</g>
</g>
<g>
	<g>
		<path class="st4" d="M214.4,190.82c-0.73-0.03-1.47,0.05-2.19,0.18c-0.2,0.05-0.37,0.14-0.51,0.27c-0.16,0.11-0.29,0.25-0.39,0.42
			c-0.11,0.17-0.17,0.36-0.18,0.56c-0.04,0.2-0.04,0.4,0.03,0.6c0.12,0.36,0.34,0.71,0.69,0.9c0.12,0.05,0.24,0.1,0.36,0.15
			c0.27,0.07,0.53,0.07,0.8,0c0.14-0.03,0.27-0.05,0.41-0.07c-0.13,0.02-0.27,0.04-0.4,0.05c0.46-0.06,0.92-0.08,1.38-0.06
			c0.21,0.01,0.4-0.04,0.58-0.13c0.19-0.06,0.35-0.16,0.48-0.31c0.15-0.14,0.25-0.3,0.31-0.48c0.09-0.18,0.14-0.37,0.13-0.58
			c-0.02-0.39-0.14-0.79-0.44-1.06C215.17,190.99,214.82,190.84,214.4,190.82L214.4,190.82z"/>
	</g>
</g>
<g>
	<g>
		<path class="st4" d="M212.87,191.27c-4.44,0.01-8.88-0.07-13.32-0.25c-1.93-0.08-1.93,2.92,0,3c4.44,0.18,8.88,0.26,13.32,0.25
			C214.8,194.26,214.81,191.26,212.87,191.27L212.87,191.27z"/>
	</g>
</g>
<g>
	<g>
		<path class="st4" d="M218.19,192.28c0.01,0.15,0.02,0.31,0.06,0.46c0.02,0.09,0.12,0.3,0.16,0.37c0.01,0.01,0.01,0.02,0.02,0.03
			c0,0.01,0.01,0.02,0.02,0.02c0.08,0.1,0.16,0.2,0.23,0.3c0.01,0.01,0.02,0.02,0.02,0.03c0.01,0.01,0.02,0.02,0.03,0.02
			c0.1,0.08,0.22,0.18,0.33,0.25c0.07,0.05,0.17,0.08,0.24,0.11c0.09,0.04,0.17,0.08,0.26,0.1c0.19,0.04,0.38,0.06,0.58,0.08
			c-0.13-0.02-0.27-0.04-0.4-0.05c0.21,0.03,0.42,0.09,0.62,0.17c-0.12-0.05-0.24-0.1-0.36-0.15c0.07,0.03,0.14,0.06,0.21,0.1
			c0.17,0.11,0.36,0.17,0.56,0.18c0.2,0.04,0.4,0.04,0.6-0.03c0.2-0.05,0.37-0.14,0.51-0.27c0.16-0.11,0.29-0.25,0.39-0.42
			c0.05-0.12,0.1-0.24,0.15-0.36c0.07-0.27,0.07-0.53,0-0.8c-0.05-0.12-0.1-0.24-0.15-0.36c-0.13-0.23-0.31-0.4-0.54-0.54
			c-0.25-0.14-0.52-0.25-0.8-0.34c-0.28-0.09-0.58-0.11-0.87-0.15c0.13,0.02,0.27,0.04,0.4,0.05c-0.06-0.01-0.12-0.02-0.17-0.04
			c0.12,0.05,0.24,0.1,0.36,0.15c-0.03-0.01-0.06-0.03-0.08-0.05c0.1,0.08,0.2,0.16,0.3,0.23c-0.02-0.02-0.04-0.03-0.05-0.05
			c0.08,0.1,0.16,0.2,0.23,0.3c-0.01-0.02-0.03-0.04-0.04-0.06c0.05,0.12,0.1,0.24,0.15,0.36c0-0.01-0.01-0.02-0.01-0.03
			c0.02,0.13,0.04,0.27,0.05,0.4c0-0.01,0-0.02,0-0.04c0.01-0.21-0.04-0.4-0.13-0.58c-0.06-0.19-0.16-0.35-0.31-0.48
			c-0.14-0.15-0.3-0.25-0.48-0.31c-0.18-0.09-0.37-0.14-0.58-0.13c-0.13,0.02-0.27,0.04-0.4,0.05c-0.25,0.07-0.47,0.2-0.66,0.39
			c-0.08,0.1-0.16,0.2-0.23,0.3C218.26,191.75,218.19,192.01,218.19,192.28L218.19,192.28z"/>
	</g>
</g>
<g>
	<g>
		<path class="st4" d="M198.19,189.18c1.93,0,1.93-3,0-3C196.26,186.18,196.26,189.18,198.19,189.18L198.19,189.18z"/>
	</g>
</g>
<g>
	<g>
		<path class="st4" d="M199,193.59c2.81,0.03,5.62,0.06,8.42-0.02c1.38-0.04,2.76-0.11,4.14,0.05c1.41,0.17,2.71,0.36,4.12,0.08
			c0.8-0.16,1.25-1.11,1.05-1.85c-0.23-0.83-1.05-1.2-1.85-1.05c-1.24,0.24-2.54-0.13-3.77-0.24c-1.33-0.12-2.67-0.03-4.01,0
			c-2.7,0.06-5.4,0.04-8.1,0.01C197.07,190.57,197.07,193.57,199,193.59L199,193.59z"/>
	</g>
</g>
<g>
	<g>
		<path class="st4" d="M199.55,192.82c3.34,0.01,6.68,0.02,10.02,0.03c0-1,0-2,0-3c-2.76-0.01-5.53-0.02-8.29-0.03
			c-0.81,0-1.5,0.69-1.5,1.5c0,0.87,0.69,1.43,1.5,1.5c1.98,0.17,3.96,0.31,5.95,0.39c0.95,0.04,1.9,0.07,2.85,0.09
			c0.31,0.01,0.73-0.04,1.02,0.05c0.55,0.16,0.88,0.43,1.49,0.43c1.93,0,1.93-3,0-3c0.23,0.1,0.27,0.11,0.12,0.03
			c-0.09-0.05-0.18-0.09-0.27-0.14c-0.24-0.12-0.49-0.22-0.75-0.27c-0.48-0.1-0.98-0.08-1.47-0.09c-0.99-0.02-1.99-0.05-2.98-0.09
			c-1.99-0.08-3.97-0.22-5.95-0.39c0,1,0,2,0,3c2.76,0.01,5.53,0.02,8.29,0.03c1.93,0.01,1.93-2.99,0-3
			c-3.34-0.01-6.68-0.02-10.02-0.03C197.62,189.81,197.62,192.81,199.55,192.82L199.55,192.82z"/>
	</g>
</g>
<g>
	<g>
		<path class="st4" d="M211.34,193.78c1.93,0,1.93-3,0-3C209.41,190.78,209.41,193.78,211.34,193.78L211.34,193.78z"/>
	</g>
</g>
<g>
	<g>
		<path class="st4" d="M211.34,193.78c1.93,0,1.93-3,0-3C209.41,190.78,209.41,193.78,211.34,193.78L211.34,193.78z"/>
	</g>
</g>
<g>
	<g>
		<path class="st4" d="M207.72,191.14c-0.17-0.02-0.34-0.03-0.5-0.06c0.27,0.05,0.04,0.01-0.1-0.02c-0.29-0.04-0.58-0.09-0.87-0.15
			c-0.53-0.1-1.06-0.22-1.59-0.36c-0.53-0.14-1.05-0.3-1.56-0.48c-0.28-0.1-0.55-0.2-0.82-0.3c-0.12-0.05-0.23-0.09-0.35-0.14
			c-0.16-0.07-0.15-0.06,0.01,0.01c-0.08-0.03-0.15-0.07-0.23-0.1c-0.72-0.31-1.64-0.23-2.05,0.54c-0.34,0.65-0.23,1.72,0.54,2.05
			c2.41,1.06,4.9,1.72,7.52,2c0.78,0.08,1.53-0.75,1.5-1.5C209.18,191.75,208.56,191.23,207.72,191.14L207.72,191.14z"/>
	</g>
</g>
<rect x="213.13" y="195.38" class="st5" width="23.14" height="0.73"/>
<path class="st6" d="M340.18,116.46H207.07c-13.79-12.16-32.83-19.69-53.82-19.69c-42.15,0-76.31,30.26-76.31,67.62
	c0,10.91,2.93,21.24,8.14,30.38l24.48,0.11h86.99c1.27-0.17,2.55-0.32,3.84-0.46c1.52-0.17,3.05-0.31,4.59-0.42
	c3.73-0.27,7.51-0.42,11.34-0.42c4.28,0,8.5,0.18,12.63,0.53c1.08,0.09,2.16,0.19,3.23,0.31c2.85,0.3,5.66,0.68,8.43,1.14
	c-0.44,0.1-0.88,0.21-1.31,0.33c0.05,0.01,0.09,0.03,0.14,0.04c3.78-0.61,7.65-0.96,11.61-0.96c40.93,0,74.13,33.2,74.13,74.13
	c0,40.94-33.2,74.13-74.13,74.13c-8.96,0-17.55-1.59-25.5-4.5c-10.71-3.93-20.27-10.25-28.01-18.33
	c-10.74-13.37-17.17-30.35-17.17-48.82c0-36.48,25.06-67.13,58.93-75.69c-1.43-0.45-2.88-0.72-4.43-0.74
	c-0.63-0.01-1.25,0.12-1.84,0.36c-0.55-0.22-1.18-0.36-1.9-0.36v-0.27h-34.58c-49.29,6.58-86.63,37.27-86.98,74.22
	c-0.01,0.18-0.01,0.36-0.01,0.54v73.48c0,31.39,23.66,56.83,52.84,56.83h177.78c29.19,0,52.86-25.44,52.86-56.83V173.27
	C393.04,141.9,369.37,116.46,340.18,116.46z M150.78,144.23c-8.31,0-15.04-6.74-15.04-15.05s6.73-15.04,15.04-15.04
	c8.3,0,15.04,6.73,15.04,15.04S159.08,144.23,150.78,144.23z"/>
<g>
	<g>
		<path class="st4" d="M215.72,164.48c7.54,3.29,15.32,6.24,23.31,8.23c1.97,0.49,3.96,0.91,5.97,1.25c1.78,0.3,3.85,0.82,5.66,0.66
			c2.04-0.18,2.23-1.95,2.27-3.61c0.05-2.15,0.11-4.29,0.16-6.44c0.05-1.93-2.95-1.93-3,0c-0.05,1.82-0.09,3.63-0.14,5.45
			c-0.01,0.44-0.11,1.05-0.04,1.49c-0.14,0.53-0.07,0.63,0.21,0.32c0.33-0.18,0.3-0.24-0.08-0.2c-0.57-0.29-1.75-0.18-2.4-0.27
			c-3.49-0.47-6.93-1.25-10.32-2.19c-6.86-1.9-13.57-4.43-20.1-7.27C215.48,161.13,213.95,163.71,215.72,164.48L215.72,164.48z"/>
	</g>
</g>
<g>
	<g>
		<path class="st4" d="M213.08,190.64c-6-0.46-11.98-1.12-17.93-1.99c-0.8-0.12-1.61,0.2-1.85,1.05c-0.19,0.71,0.24,1.73,1.05,1.85
			c6.22,0.91,12.46,1.62,18.73,2.1C215,193.78,215,190.78,213.08,190.64L213.08,190.64z"/>
	</g>
</g>
<g>
	<path class="st5" d="M232.18,194.42h-31.79c1.52-0.17,3.05-0.31,4.59-0.42c3.73-0.27,7.51-0.42,11.34-0.42
		c4.28,0,8.5,0.18,12.63,0.53C230.03,194.2,231.11,194.3,232.18,194.42z"/>
</g>
<rect x="236.28" y="195.53" class="st5" width="1.06" height="0.36"/>
<rect x="214.4" y="195.38" class="st5" width="23.14" height="0.51"/>
<rect x="183.3" y="149.07" class="st7" width="111.32" height="45.35"/>
<rect x="207.47" y="195.38" class="st8" width="30.07" height="0.51"/>
<rect x="232.23" y="195.44" transform="matrix(0.9922 -0.1246 0.1246 0.9922 -22.5971 30.549)" class="st7" width="1.31" height="0.92"/>
<rect x="203.3" y="189.57" class="st7" width="34.79" height="6.63"/>
</svg>
